<?xml version="1.0" encoding="utf-8"?>
<!-- Generator: Adobe Illustrator 15.0.0, SVG Export Plug-In . SVG Version: 6.00 Build 0)  -->
<!DOCTYPE svg PUBLIC "-//W3C//DTD SVG 1.1//EN" "http://www.w3.org/Graphics/SVG/1.1/DTD/svg11.dtd">
<svg version="1.1" id="Ebene_1" xmlns="http://www.w3.org/2000/svg" xmlns:xlink="http://www.w3.org/1999/xlink" x="0px" y="0px"
	 width="32px" height="32px" viewBox="0 0 32 32" enable-background="new 0 0 32 32" xml:space="preserve">
<path fill="#006699" d="M22.78,9.649l8.24-1.826c0.289-0.065,0.575,0.116,0.64,0.408c0.029,0.123,0.013,0.25-0.047,0.362
	l-3.021,5.858c-0.138,0.266-0.461,0.37-0.725,0.232c-0.027-0.016-0.056-0.033-0.08-0.054L22.569,10.6
	c-0.233-0.183-0.276-0.519-0.097-0.752C22.547,9.746,22.656,9.677,22.78,9.649 M0.654,18.953l8.24-1.826
	c0.289-0.064,0.473-0.351,0.408-0.64c-0.027-0.123-0.096-0.233-0.196-0.309l-5.217-4.033c-0.234-0.182-0.571-0.139-0.752,0.098
	c-0.021,0.025-0.036,0.052-0.052,0.082l-3.024,5.86c-0.136,0.267-0.033,0.588,0.23,0.725C0.402,18.965,0.53,18.98,0.654,18.953"/>
<g>
	<path fill="#006699" d="M4.625,9.496c0.774,0.363,1.762-0.003,2.112-0.748c1.39-2.727,3.901-4.67,6.889-5.333
		c4.719-1.047,9.574,1.397,11.543,5.812l0.172,0.386l3.144-0.697l-0.229-0.569c-1.213-2.977-3.458-5.423-6.321-6.885
		c-2.77-1.415-5.962-1.823-8.993-1.15C9.02,1.18,5.722,3.728,3.858,7.38C3.68,7.763,3.659,8.197,3.805,8.598
		C3.95,8.999,4.242,9.317,4.625,9.496z"/>
	<path fill="#006699" d="M7.133,23.558l1.492-2.95c-0.87-0.862-1.598-1.89-2.12-3.058l-0.173-0.388l-3.145,0.699l0.231,0.569
		C4.232,20.426,5.517,22.175,7.133,23.558z"/>
</g>
<g>
	<path fill="#006699" d="M15.99,17.755c-0.073-0.193-0.257-0.321-0.463-0.321h-2.558c-0.207,0-0.39,0.128-0.463,0.321L7.52,31.148
		c-0.056,0.153-0.035,0.321,0.058,0.455c0.092,0.133,0.244,0.212,0.406,0.212h2.935c0.213,0,0.402-0.136,0.468-0.338l0.809-2.422
		h4.126l0.816,2.423c0.067,0.202,0.256,0.337,0.469,0.337h2.934c0.162,0,0.313-0.079,0.406-0.212
		c0.093-0.134,0.113-0.303,0.056-0.455L15.99,17.755z M15.245,25.832h-1.977l0.982-2.959L15.245,25.832z"/>
	<path fill="#006699" d="M27.141,22.946c-0.802-0.242-1.408-0.499-1.804-0.765c-0.394-0.265-0.438-0.518-0.438-0.685
		c0-0.311,0.116-0.543,0.367-0.734c0.283-0.216,0.711-0.326,1.273-0.326c0.572,0,1.01,0.13,1.302,0.387
		c0.276,0.244,0.412,0.591,0.412,1.06c0,0.273,0.221,0.494,0.494,0.494h2.759c0.273,0,0.494-0.221,0.494-0.494
		c0-0.897-0.235-1.713-0.701-2.424c-0.465-0.706-1.119-1.261-1.949-1.645c-1.612-0.745-3.883-0.737-5.527-0.048
		c-0.846,0.353-1.508,0.856-1.967,1.495c-0.468,0.65-0.705,1.399-0.705,2.226c0,1.582,0.855,2.846,2.541,3.756
		c0.588,0.317,1.358,0.629,2.354,0.951c1.12,0.362,1.619,0.639,1.841,0.807c0.243,0.185,0.356,0.441,0.356,0.807
		c0,0.321-0.107,0.543-0.349,0.717c-0.279,0.203-0.698,0.307-1.246,0.307c-1.909,0-2.154-0.921-2.154-1.723
		c0-0.273-0.222-0.494-0.494-0.494h-2.77c-0.272,0-0.494,0.221-0.494,0.494c0,0.962,0.253,1.822,0.752,2.558
		c0.495,0.732,1.216,1.312,2.145,1.725C24.539,31.795,25.555,32,26.648,32c1.586,0,2.877-0.366,3.838-1.089
		C31.49,30.157,32,29.106,32,27.789c0-1.176-0.412-2.175-1.226-2.967C30.003,24.07,28.78,23.438,27.141,22.946z"/>
</g>
</svg>
