<?xml version="1.0" encoding="utf-8"?>
<!-- Generator: Adobe Illustrator 15.0.0, SVG Export Plug-In . SVG Version: 6.00 Build 0)  -->
<!DOCTYPE svg PUBLIC "-//W3C//DTD SVG 1.1//EN" "http://www.w3.org/Graphics/SVG/1.1/DTD/svg11.dtd">
<svg version="1.1" id="Ebene_1" xmlns="http://www.w3.org/2000/svg" xmlns:xlink="http://www.w3.org/1999/xlink" x="0px" y="0px"
	 width="32px" height="32px" viewBox="0 0 32 32" enable-background="new 0 0 32 32" xml:space="preserve">
<path fill="#006699" d="M23.279,14.02h8.135c0.285,0,0.518,0.23,0.518,0.518c0,0.121-0.041,0.238-0.119,0.331l-4.068,4.882
	c-0.184,0.222-0.51,0.251-0.729,0.067c-0.023-0.021-0.045-0.043-0.064-0.067l-4.069-4.882c-0.182-0.22-0.153-0.546,0.066-0.728
	C23.04,14.062,23.157,14.02,23.279,14.02 M0.518,18.158h8.135c0.286,0,0.518-0.23,0.518-0.518c0-0.121-0.042-0.238-0.12-0.332
	l-4.068-4.882c-0.183-0.22-0.509-0.25-0.729-0.066c-0.024,0.02-0.045,0.042-0.066,0.066L0.12,17.311
	c-0.183,0.22-0.153,0.545,0.066,0.728C0.279,18.115,0.396,18.158,0.518,18.158"/>
<g>
	<path fill="#006699" d="M6.228,10.087c0.653,0.504,1.658,0.365,2.143-0.263c1.878-2.276,4.646-3.581,7.595-3.581
		c4.66,0,8.718,3.312,9.649,7.877l0.082,0.4h3.104l-0.099-0.584c-0.521-3.055-2.122-5.825-4.511-7.798
		c-2.311-1.909-5.23-2.959-8.222-2.959c-3.871,0-7.504,1.71-10.021,4.757C5.7,8.26,5.591,8.664,5.644,9.071
		C5.697,9.478,5.905,9.839,6.228,10.087z"/>
	<path fill="#006699" d="M3.669,20h3.27c-0.269-0.616-0.484-1.263-0.623-1.941l-0.082-0.399H3.13l0.099,0.584
		C3.331,18.843,3.486,19.427,3.669,20z"/>
</g>
<text transform="matrix(1 0 0 1 15.0464 30.9336)" fill="#006699" stroke="#006699" stroke-width="0.5" stroke-linejoin="round" stroke-miterlimit="10" font-family="'Roboto-Bold'" font-size="12.7395">AS</text>
<g>
	<path fill="#006699" d="M6.228,10.087c0.653,0.504,1.658,0.365,2.143-0.263c1.878-2.276,4.646-3.581,7.595-3.581
		c4.66,0,8.718,3.312,9.649,7.877l0.082,0.4h3.104l-0.099-0.584c-0.521-3.055-2.122-5.825-4.51-7.798
		c-2.311-1.909-5.231-2.959-8.223-2.959c-3.871,0-7.504,1.71-10.021,4.757C5.7,8.26,5.591,8.664,5.644,9.071
		C5.697,9.478,5.905,9.839,6.228,10.087z"/>
	<path fill="#006699" d="M14.475,25.812c-4.007-0.616-7.325-3.684-8.158-7.755l-0.082-0.399H3.13l0.099,0.584
		c0.52,3.056,2.122,5.825,4.51,7.799c1.595,1.317,3.483,2.215,5.482,2.65L14.475,25.812z"/>
</g>
</svg>
