<?xml version="1.0" encoding="utf-8"?>
<!-- Generator: Adobe Illustrator 15.0.0, SVG Export Plug-In . SVG Version: 6.00 Build 0)  -->
<!DOCTYPE svg PUBLIC "-//W3C//DTD SVG 1.1//EN" "http://www.w3.org/Graphics/SVG/1.1/DTD/svg11.dtd">
<svg version="1.1" id="Ebene_1" xmlns="http://www.w3.org/2000/svg" xmlns:xlink="http://www.w3.org/1999/xlink" x="0px" y="0px"
	 width="32px" height="32px" viewBox="0 0 32 32" enable-background="new 0 0 32 32" xml:space="preserve">
<g>
	<path fill="#006699" d="M15.99,17.755c-0.073-0.193-0.257-0.321-0.463-0.321h-2.558c-0.207,0-0.39,0.128-0.463,0.321L7.52,31.148
		c-0.056,0.153-0.035,0.321,0.058,0.455c0.092,0.133,0.244,0.212,0.406,0.212h2.935c0.213,0,0.402-0.136,0.468-0.338l0.809-2.422
		h4.126l0.816,2.423c0.067,0.202,0.256,0.337,0.469,0.337h2.934c0.162,0,0.313-0.079,0.406-0.212
		c0.093-0.134,0.113-0.303,0.056-0.455L15.99,17.755z M15.245,25.832h-1.977l0.982-2.959L15.245,25.832z"/>
	<path fill="#006699" d="M27.141,22.946c-0.802-0.242-1.408-0.499-1.804-0.765c-0.394-0.265-0.438-0.518-0.438-0.685
		c0-0.311,0.116-0.543,0.367-0.734c0.283-0.216,0.711-0.326,1.273-0.326c0.572,0,1.01,0.13,1.302,0.387
		c0.276,0.244,0.412,0.591,0.412,1.06c0,0.273,0.221,0.494,0.494,0.494h2.759c0.273,0,0.494-0.221,0.494-0.494
		c0-0.897-0.235-1.713-0.701-2.424c-0.465-0.706-1.119-1.261-1.949-1.645c-1.612-0.745-3.883-0.737-5.527-0.048
		c-0.846,0.353-1.508,0.856-1.967,1.495c-0.468,0.65-0.705,1.399-0.705,2.226c0,1.582,0.855,2.846,2.541,3.756
		c0.588,0.317,1.358,0.629,2.354,0.951c1.12,0.362,1.619,0.639,1.841,0.807c0.243,0.185,0.356,0.441,0.356,0.807
		c0,0.321-0.107,0.543-0.349,0.717c-0.279,0.203-0.698,0.307-1.246,0.307c-1.909,0-2.154-0.921-2.154-1.723
		c0-0.273-0.222-0.494-0.494-0.494h-2.77c-0.272,0-0.494,0.221-0.494,0.494c0,0.962,0.253,1.822,0.752,2.558
		c0.495,0.732,1.216,1.312,2.145,1.725C24.539,31.795,25.555,32,26.648,32c1.586,0,2.877-0.366,3.838-1.089
		C31.49,30.157,32,29.106,32,27.789c0-1.176-0.412-2.175-1.226-2.967C30.003,24.07,28.78,23.438,27.141,22.946z"/>
</g>
<path fill="#006699" d="M23.345,10.695l8.128-0.157c0.287-0.006,0.523,0.219,0.527,0.508c0.005,0.122-0.035,0.238-0.112,0.333
	l-3.969,4.958c-0.182,0.226-0.507,0.26-0.729,0.082c-0.021-0.021-0.045-0.042-0.065-0.066l-4.16-4.801
	c-0.186-0.216-0.163-0.541,0.05-0.729C23.106,10.741,23.222,10.697,23.345,10.695 M0.677,15.27l8.13-0.156
	c0.285-0.006,0.514-0.24,0.507-0.527c-0.002-0.122-0.045-0.238-0.127-0.329l-4.16-4.801C4.841,9.239,4.516,9.215,4.299,9.403
	c-0.024,0.02-0.044,0.042-0.065,0.067l-3.971,4.96c-0.178,0.225-0.142,0.548,0.08,0.727C0.438,15.232,0.555,15.272,0.677,15.27"/>
<g>
	<path fill="#006699" d="M6.228,7.094C6.89,7.585,7.892,7.427,8.364,6.79c1.833-2.311,4.573-3.669,7.521-3.726
		c4.657-0.09,8.777,3.142,9.796,7.686l0.089,0.398l3.102-0.061l-0.109-0.582c-0.578-3.042-2.233-5.78-4.659-7.706
		c-2.347-1.863-5.283-2.856-8.275-2.797C11.96,0.077,8.363,1.855,5.906,4.949c-0.241,0.329-0.343,0.735-0.281,1.14
		C5.685,6.495,5.899,6.852,6.228,7.094z"/>
	<path fill="#006699" d="M8.016,23.037c0.1,0.079,0.206,0.147,0.308,0.223l1.106-3.056c-1.462-1.326-2.537-3.09-2.992-5.117
		l-0.089-0.398L3.247,14.75l0.109,0.582C3.935,18.373,5.59,21.111,8.016,23.037z"/>
</g>
</svg>
