<?xml version="1.0" encoding="utf-8"?>
<!-- Generator: Adobe Illustrator 16.2.1, SVG Export Plug-In . SVG Version: 6.00 Build 0)  -->
<!DOCTYPE svg PUBLIC "-//W3C//DTD SVG 1.1//EN" "http://www.w3.org/Graphics/SVG/1.1/DTD/svg11.dtd">
<?xml-stylesheet type="text/css" href="../../../../pixelegg/less/svg.css" ?>
<svg version="1.1" id="activesync_navbar" xmlns="http://www.w3.org/2000/svg" xmlns:xlink="http://www.w3.org/1999/xlink" x="0px" y="0px"
	 width="28.347px" height="28.347px" viewBox="0 0 28.347 28.347" enable-background="new 0 0 28.347 28.347" xml:space="preserve">
<g>
	<path fill="#ECEDED" d="M20.28,6.904c0,1.271-1.138,2.303-2.542,2.303c-1.405,0-2.543-1.031-2.543-2.303s1.138-2.302,2.543-2.302
		C19.143,4.602,20.28,5.632,20.28,6.904z"/>
	<path fill="#ECEDED" d="M26.724,5.055c0-0.18-0.162-0.327-0.361-0.327h-5.62c-0.199,0-0.36,0.147-0.36,0.327v0.817
		c0,0.18,0.161,0.327,0.36,0.327h1.281c0.2,0,0.307,0.138,0.238,0.307l-4.133,10.28c-0.067,0.17-0.178,0.17-0.246,0L13.75,6.505
		c-0.068-0.168,0.039-0.307,0.237-0.307h0.671c0.198,0,0.36-0.147,0.36-0.327V5.055c0-0.18-0.162-0.327-0.36-0.327H9.037
		c-0.198,0-0.361,0.147-0.361,0.327v0.817c0,0.18,0.163,0.327,0.361,0.327h1.017c0.199,0,0.417,0.138,0.484,0.307l2.422,6.026
		c0.068,0.168,0.068,0.445,0,0.613l-1.459,3.632c-0.067,0.169-0.18,0.169-0.247,0L7.126,6.505C7.057,6.336,7.163,6.198,7.363,6.198
		H7.89c0.199,0,0.361-0.147,0.361-0.327V5.055c0-0.18-0.162-0.327-0.361-0.327H2.271c-0.198,0-0.361,0.147-0.361,0.327v0.817
		c0,0.18,0.163,0.327,0.361,0.327h1.16c0.199,0,0.417,0.138,0.483,0.307l6.603,16.405c0.068,0.169,0.179,0.169,0.247,0l3.062-7.616
		c0.068-0.17,0.179-0.17,0.247,0l3.065,7.625c0.068,0.169,0.125,0.298,0.129,0.285c0.002-0.012,0.004-0.014,0.005-0.004
		c0,0.009,0.057-0.122,0.123-0.291L23.99,6.505c0.067-0.168,0.286-0.307,0.483-0.307h1.889c0.199,0,0.361-0.147,0.361-0.327V5.055z"
		/>
</g>
</svg>
